<svg xmlns="http://www.w3.org/2000/svg" viewBox="0 0 400 220">
  <defs>
    <linearGradient id="g1" x1="0" y1="0" x2="1" y2="1">
      <stop offset="0%" stop-color="#0B4F6C"/>
      <stop offset="100%" stop-color="#1B8F80"/>
    </linearGradient>
  </defs>
  <rect width="400" height="220" fill="url(#g1)"/>
  <circle cx="340" cy="40" r="70" fill="rgba(255,255,255,0.07)"/>
  <circle cx="30" cy="190" r="90" fill="rgba(255,255,255,0.06)"/>
  <rect x="40" y="107" width="14" height="53" rx="3" fill="rgba(255,255,255,0.18)"/><rect x="66" y="114" width="14" height="46" rx="3" fill="rgba(255,255,255,0.18)"/><rect x="92" y="121" width="14" height="39" rx="3" fill="rgba(255,255,255,0.18)"/><rect x="118" y="117" width="14" height="43" rx="3" fill="rgba(255,255,255,0.18)"/><rect x="144" y="122" width="14" height="38" rx="3" fill="rgba(255,255,255,0.18)"/><rect x="170" y="129" width="14" height="31" rx="3" fill="rgba(255,255,255,0.18)"/>
  <g transform="translate(230,60)">
    <rect x="20" y="0" width="14" height="56" rx="4" fill="rgba(255,255,255,0.85)"/>
    <rect x="0" y="20" width="54" height="14" rx="4" fill="rgba(255,255,255,0.85)"/>
  </g>
  <polyline points="20,140 70,140 85,110 100,160 115,120 130,140 180,140" fill="none" stroke="rgba(255,255,255,0.55)" stroke-width="3" stroke-linecap="round" stroke-linejoin="round"/>
</svg>